<?xml version="1.0" encoding="utf-8"?>
<svg xmlns="http://www.w3.org/2000/svg" viewBox="0 0 500 500">
  <path d="M 257.155 114.839 C 247.354 114.767 237.445 115.777 227.6 117.968 C 201.147 123.859 191.261 141.785 192.408 158.925 C 198.153 159.254 204.118 160.081 210.218 161.381 C 228.069 165.187 247.142 173.13 265.067 185.045 C 326.834 169.467 364.989 216.46 378.831 278.778 C 409.443 187.777 336.957 115.422 257.153 114.84 L 257.155 114.839 Z M 187.841 170.352 C 177.493 170.282 168.595 172.162 162.145 175.736 L 162.12 175.69 C 153.411 180.399 147.451 187.657 144.166 195.823 C 153.177 198.807 161.894 204.342 170.008 211.509 C 180.922 221.15 190.858 233.877 198.993 248.257 C 271.013 249.721 298.47 311.938 291.798 380.844 C 340.766 315.018 317.775 239.338 264.786 198.894 C 246.318 185.382 226.093 176.537 207.817 172.64 C 200.78 171.14 194.048 170.395 187.841 170.354 L 187.841 170.352 Z M 130.597 204.971 C 97.205 204.135 78.008 254.744 113.767 271.644 C 178.092 302.049 172.227 358.467 135.228 408.82 C 206.144 379.335 217.972 302.731 185.734 248.636 L 185.827 248.629 C 178.88 237.418 170.812 227.578 162.387 220.136 C 153.382 212.182 144.07 207.089 135.433 205.455 C 133.835 205.178 132.218 205.016 130.596 204.971 L 130.597 204.971 Z" style="fill-opacity: 0.9; paint-order: fill; fill: none; stroke-width: 7px; stroke-linecap: square; stroke-miterlimit: 7.6; stroke: rgb(0, 0, 0);"/>
</svg>