<svg viewBox="0 0 48 48" xmlns="http://www.w3.org/2000/svg"><g fill="none" stroke="currentColor" stroke-width="2.5" stroke-linecap="round" stroke-linejoin="round">
  <path d="M24 30 C 23 22 27 17 35 14 C 41 12 44 14 44 18 C 42 19 40 19 38 19 C 41 21 42 24 41 27 C 39 26 37 25 35 25 C 38 28 38 31 36 34 C 33 31 30 29 27 28 C 26 29 25 30 24 32 Z"/>
  <path d="M24 30 C 25 22 21 17 13 14 C 7 12 4 14 4 18 C 6 19 8 19 10 19 C 7 21 6 24 7 27 C 9 26 11 25 13 25 C 10 28 10 31 12 34 C 15 31 18 29 21 28 C 22 29 23 30 24 32 Z"/>
</g></svg>