<?xml version="1.0" encoding="utf-8"?>
<svg xmlns="http://www.w3.org/2000/svg" viewBox="0 0 500 500">
  <path style="fill: none; stroke: rgb(0, 0, 0); stroke-width: 16px;" d="M 97.517 372.501 C 116.044 369.281 130.599 365.479 147.872 358.021 C 166.134 350.136 194.29 340.713 209.905 331.153 C 282.096 286.959 334.946 251.289 363.892 192.923 C 372.658 175.244 380.066 158.719 384.687 140.167 C 385.961 135.054 389.653 119.863 389.653 114.826 C 389.653 113.569 390.205 137.472 390.06 138.724 C 389.774 141.213 389.886 152.668 389.057 158.613 C 388.29 164.112 386.761 171.55 385.997 177.246 C 383.758 193.937 383.798 187.92 380.845 204.477 C 375.888 232.265 359.612 268.208 342.991 292.559 C 325.964 317.505 304.717 340.352 281.33 358.253 C 257.061 376.829 190.396 424.94 143.163 432.436 C 128.118 434.823 124.544 417.406 122.676 413.944 C 110.988 392.279 99.468 377.007 98.52 366.063"/>
</svg>